<?xml version="1.0" encoding="UTF-8" standalone="no"?>
<!-- Created with Inkscape (http://www.inkscape.org/) -->

<svg
   width="1280"
   height="720"
   viewBox="0 0 338.66666 190.5"
   version="1.1"
   id="svg1"
   inkscape:version="1.4-beta (62f545ba, 2024-04-22)"
   sodipodi:docname="navbar.svg"
   inkscape:export-filename="../src/assets/svg/navbar.svg"
   inkscape:export-xdpi="96"
   inkscape:export-ydpi="96"
   xml:space="preserve"
   xmlns:inkscape="http://www.inkscape.org/namespaces/inkscape"
   xmlns:sodipodi="http://sodipodi.sourceforge.net/DTD/sodipodi-0.dtd"
   xmlns:xlink="http://www.w3.org/1999/xlink"
   xmlns="http://www.w3.org/2000/svg"
   xmlns:svg="http://www.w3.org/2000/svg"><sodipodi:namedview
     id="namedview1"
     pagecolor="#ffffff"
     bordercolor="#000000"
     borderopacity="0.25"
     inkscape:showpageshadow="2"
     inkscape:pageopacity="0.0"
     inkscape:pagecheckerboard="0"
     inkscape:deskcolor="#d1d1d1"
     inkscape:document-units="mm"
     inkscape:zoom="0.52410024"
     inkscape:cx="944.47581"
     inkscape:cy="281.43471"
     inkscape:window-width="1920"
     inkscape:window-height="1052"
     inkscape:window-x="0"
     inkscape:window-y="28"
     inkscape:window-maximized="0"
     inkscape:current-layer="layer1" /><defs
     id="defs1"><inkscape:path-effect
       effect="powerstroke"
       message=""
       id="path-effect16"
       is_visible="true"
       lpeversion="1.3"
       scale_width="1"
       interpolator_type="CentripetalCatmullRom"
       interpolator_beta="0.2"
       start_linecap_type="round"
       end_linecap_type="round"
       offset_points="0.22457517,2.1128028 | 0.48242703,1.714506 | 0.78187743,1.0202356"
       linejoin_type="round"
       miter_limit="4"
       not_jump="false"
       sort_points="true" /><inkscape:path-effect
       effect="powerstroke"
       message=""
       id="path-effect15"
       is_visible="true"
       lpeversion="1.3"
       scale_width="1"
       interpolator_type="CentripetalCatmullRom"
       interpolator_beta="0.2"
       start_linecap_type="round"
       end_linecap_type="round"
       offset_points="0.19544662,0.97594111 | 0.49981195,0.96130658 | 0.80191481,1.1237967"
       linejoin_type="round"
       miter_limit="4"
       not_jump="false"
       sort_points="true" /><inkscape:path-effect
       effect="powerstroke"
       message=""
       id="path-effect14"
       is_visible="true"
       lpeversion="1.3"
       scale_width="1"
       interpolator_type="CentripetalCatmullRom"
       interpolator_beta="0.2"
       start_linecap_type="round"
       end_linecap_type="round"
       offset_points="0.24585419,1.9357658 | 1,0.39699951 | 1.7356731,1.7548696"
       linejoin_type="round"
       miter_limit="4"
       not_jump="false"
       sort_points="true" /><inkscape:path-effect
       effect="powerstroke"
       message=""
       id="path-effect13"
       is_visible="true"
       lpeversion="1.3"
       scale_width="1"
       interpolator_type="CentripetalCatmullRom"
       interpolator_beta="0.2"
       start_linecap_type="round"
       end_linecap_type="round"
       offset_points="0.15512458,1.3332945 | 0.49022765,2.8368517 | 0.87860605,1.3488248"
       linejoin_type="round"
       miter_limit="4"
       not_jump="false"
       sort_points="true" /><inkscape:path-effect
       effect="powerstroke"
       message=""
       id="path-effect12"
       is_visible="true"
       lpeversion="1.3"
       scale_width="1"
       interpolator_type="CentripetalCatmullRom"
       interpolator_beta="0.2"
       start_linecap_type="round"
       end_linecap_type="round"
       offset_points="0.10863068,0.90998567 | 0.10863068,0.90998567 | 0.96113637,2.1706539 | 1.921684,1.0587431"
       linejoin_type="round"
       miter_limit="4"
       not_jump="false"
       sort_points="true" /><inkscape:path-effect
       effect="powerstroke"
       message=""
       id="path-effect11"
       is_visible="true"
       lpeversion="1.3"
       scale_width="1"
       interpolator_type="CentripetalCatmullRom"
       interpolator_beta="0.2"
       start_linecap_type="zerowidth"
       end_linecap_type="zerowidth"
       offset_points="1.4833806,-1.1253649 | 2.4369575,-2.1329013 | 3.508077,-1.0035561 | 0.60378076,-2.1462387"
       linejoin_type="round"
       miter_limit="4"
       not_jump="false"
       sort_points="true" /><inkscape:path-effect
       effect="powerstroke"
       message=""
       id="path-effect10"
       is_visible="true"
       lpeversion="1.3"
       scale_width="1"
       interpolator_type="CentripetalCatmullRom"
       interpolator_beta="0.2"
       start_linecap_type="round"
       end_linecap_type="round"
       offset_points="0.1659196,0.89714054 | 2.0079614,2.6950971 | 1.4983579,0.95000092 | 0.92721477,2.069901 | 2.9354077,0.79687829"
       linejoin_type="round"
       miter_limit="4"
       not_jump="false"
       sort_points="true" /><clipPath
       clipPathUnits="userSpaceOnUse"
       id="clipPath17"><path
         style="fill:#595959;fill-opacity:1;stroke-width:0.793999;stroke-linecap:round;stroke-miterlimit:10"
         d="M -14.67905,68.409173 C 49.091812,39.727633 129.22349,85.170305 203.13336,43.587792 L 331.1293,71.052804 291.16209,257.31303 -39.967202,186.26023 Z"
         id="path17"
         sodipodi:nodetypes="cccccc" /></clipPath><filter
       style="color-interpolation-filters:sRGB;"
       inkscape:label="Lightness-Contrast"
       id="filter17"
       x="0"
       y="0"
       width="1"
       height="1"><feColorMatrix
         values="1.321 0 0 0.26066600000000001 -0.1605 0 1.321 0 0.26066600000000001 -0.1605 0 0 1.321 0.26066600000000001 -0.1605 0 0 0 1 0"
         id="feColorMatrix17" /></filter></defs><g
     inkscape:label="Blocks"
     inkscape:groupmode="layer"
     id="layer1"><rect
       style="fill:#000000;fill-opacity:1;stroke-width:0.793999;stroke-linecap:round;stroke-miterlimit:10"
       id="top"
       width="338.66699"
       height="190.5"
       x="0"
       y="0" /><image
       width="259.58795"
       height="126.18858"
       preserveAspectRatio="none"
       style="opacity:1;image-rendering:optimizeSpeed"
       xlink:href="../../../share/20240808_180032.jpg"
       id="image1"
       x="-27.167078"
       y="19.695581"
       transform="rotate(-12.110725)"
       clip-path="url(#clipPath17)" /><path
       style="fill:#757575;fill-opacity:1;stroke-width:0.793999;stroke-linecap:round;stroke-miterlimit:10"
       d="M 0,123.15504 C 74.992532,69.343233 160.39904,163.84976 238.09976,0 h 100.5669 V 190.5 H 0 Z"
       id="stripe2"
       sodipodi:nodetypes="cccccc" /><path
       style="fill:#4e4e4e;fill-opacity:1;stroke-width:0.793999;stroke-linecap:round;stroke-miterlimit:10"
       d="M 38.552885,190.5 C 140.27857,91.131745 250.92853,178.80168 277.3333,0 h 61.33337 l -1e-5,190.5"
       id="stripe3"
       sodipodi:nodetypes="cccc" /><path
       style="fill:#000000;fill-opacity:1;stroke-width:0.793999;stroke-linecap:round;stroke-miterlimit:10"
       d="m 199.1899,190.5 c 37.27358,-56.65866 119.79864,-16.30183 139.47676,-75.55529 V 190.5 Z"
       id="bottom"
       sodipodi:nodetypes="cccc" /></g><g
     inkscape:groupmode="layer"
     id="layer2"
     inkscape:label="TextCurves"
     style="display:none"><path
       style="fill:none;fill-opacity:1;stroke:#caa08e;stroke-width:0.793999;stroke-linecap:round;stroke-miterlimit:10;stroke-dasharray:0.793999, 2.382;stroke-dashoffset:0;stroke-opacity:1"
       d="M 192.64936,190.5 C 255.90047,101.21423 327.74745,235.47837 332.82703,0"
       id="path4"
       sodipodi:nodetypes="cc" /><path
       style="fill:none;fill-opacity:1;stroke:#caa08e;stroke-width:0.793999;stroke-linecap:round;stroke-miterlimit:10;stroke-dasharray:0.793999, 2.382;stroke-dashoffset:0;stroke-opacity:1"
       d="M 46.763222,190.5 C 179.55649,94.117788 247.82131,168.60898 282.57763,0"
       id="path5"
       sodipodi:nodetypes="cc" /><path
       style="fill:none;fill-opacity:1;stroke:#caa08e;stroke-width:0.793999;stroke-linecap:round;stroke-miterlimit:10;stroke-dasharray:0.793999, 2.382;stroke-dashoffset:0;stroke-opacity:1"
       d="M 33.912259,190.5 C 134.62653,91.805061 246.70816,172.40062 273.21192,0"
       id="path6"
       sodipodi:nodetypes="cc" /><path
       style="fill:none;fill-opacity:1;stroke:#caa08e;stroke-width:0.793999;stroke-linecap:round;stroke-miterlimit:10;stroke-dasharray:0.793999, 2.382;stroke-dashoffset:0;stroke-opacity:1"
       d="M 0,130.23317 C 66.385598,72.682157 161.38314,172.15937 243.32972,0"
       id="path7"
       sodipodi:nodetypes="cc" /><path
       style="fill:none;fill-opacity:1;stroke:#caa08e;stroke-width:0.793999;stroke-linecap:round;stroke-miterlimit:10;stroke-dasharray:0.793999, 2.382;stroke-dashoffset:0;stroke-opacity:1"
       d="M 0,117.37377 C 76.482267,68.404925 162.80878,156.24595 232.98063,0"
       id="path8"
       sodipodi:nodetypes="cc" /><path
       style="fill:none;fill-opacity:1;stroke:#caa08e;stroke-width:0.793999;stroke-linecap:round;stroke-miterlimit:10;stroke-dasharray:0.793999, 2.382;stroke-dashoffset:0;stroke-opacity:1"
       d="M 0,73.536058 C 57.80343,27.848631 150.09421,62.346931 211.68389,0"
       id="path9"
       sodipodi:nodetypes="cc" /></g><g
     inkscape:groupmode="layer"
     id="layer3"
     inkscape:label="Social"><path
       style="fill:#ffffff;fill-opacity:1;fill-rule:nonzero;stroke:none;stroke-width:0.793999;stroke-linecap:round;stroke-miterlimit:10;stroke-dasharray:none;stroke-dashoffset:0;stroke-opacity:1"
       d="m 103.18608,155.8438 c -0.21967,0.13698 -4.38425,2.76771 -5.990239,3.78805 -0.579477,0.36817 -1.177298,0.74939 -1.764378,1.127 -0.971375,0.6248 -2.157498,1.38745 -3.250656,2.1439 -1.299343,0.89912 -2.656798,1.9162 -3.682229,2.96284 -0.467603,0.47727 -0.898753,0.99266 -1.237673,1.5455 -0.329031,0.53671 -0.58604,1.13016 -0.69411,1.7895 -0.05317,0.32441 -0.06885,0.65933 -0.03946,1.00173 0.02916,0.33977 0.101856,0.67691 0.217994,1.00831 0.229757,0.65562 0.621934,1.26109 1.124403,1.80229 0.501225,0.53987 1.122351,1.03022 1.83808,1.48045 0.728076,0.45799 1.571028,0.88509 2.517537,1.2867 1.996482,0.84713 4.490978,1.59582 7.360926,2.2629 1.30384,0.30306 2.67883,0.5877 4.10417,0.85403 2.08296,0.3892 4.36267,0.75163 6.83568,1.09419 3.88199,0.5307 7.34689,0.42564 10.48009,-0.085 3.22604,-0.52576 6.121,-1.48496 8.78144,-2.64472 5.26213,-2.2939 10.15436,-5.65615 14.95447,-8.35967 -9e-5,5e-5 0.0984,-0.0553 0.0983,-0.0553 2.60758,-1.46412 5.14236,-2.70445 7.78657,-3.70474 2.72151,-1.02953 5.54877,-1.79917 8.5708,-2.24121 2.90571,-0.42502 6.12604,-0.56701 9.75154,-0.27138 3.30587,0.26956 7.184,0.92157 11.74993,2.22442 0.13893,0.0408 0.278,0.0813 0.41723,0.12152 3.49276,1.00782 7.66931,1.94117 11.10857,2.90987 1.5571,0.43857 2.91711,0.87817 4.05862,1.35859 1.12498,0.47346 1.95428,0.95219 2.54873,1.44952 0.2986,0.24982 0.54124,0.50712 0.73316,0.77688 0.19805,0.27834 0.35403,0.58651 0.45979,0.94089 0.11163,0.37403 0.1679,0.80217 0.15438,1.29405 -0.0145,0.52786 -0.10893,1.10821 -0.28335,1.73664 -0.42713,1.53891 -1.28493,3.191 -2.2633,4.72845 -0.69759,1.09621 -1.42956,2.0911 -2.01181,2.82979 -1.25456,1.59162 -2.46582,2.87104 -2.9131,3.36111 a 0.79687829,0.79687829 90 0 0 1.17716,1.0744 c 0.38701,-0.42402 1.69919,-1.9172 2.97139,-3.42867 0.6149,-0.73055 1.44452,-1.71869 2.26706,-2.79151 1.13685,-1.48275 2.31428,-3.19303 3.09341,-4.91085 0.32507,-0.71671 0.58921,-1.45177 0.75723,-2.19758 0.15733,-0.69834 0.23148,-1.41094 0.19097,-2.13199 -0.0388,-0.6912 -0.18219,-1.37277 -0.44174,-2.03858 -0.25149,-0.64517 -0.60244,-1.25078 -1.04057,-1.8176 -0.85696,-1.10869 -2.01974,-2.03413 -3.35186,-2.83087 -1.34906,-0.80689 -2.90465,-1.50094 -4.54018,-2.12097 -3.40852,-1.29216 -8.05206,-2.55504 -11.24575,-3.38895 -0.004,-0.001 -0.40817,-0.10614 -0.41231,-0.10722 -4.98463,-1.33878 -9.2792,-1.83572 -12.99756,-1.8377 -4.06921,-0.002 -7.60799,0.58933 -10.71683,1.46619 -3.21649,0.90722 -6.11436,2.16052 -8.81504,3.53882 -2.63204,1.34328 -5.11426,2.82296 -7.71332,4.36047 0.002,-0.001 -0.1,0.0591 -0.0981,0.058 -4.92776,2.91436 -9.70178,5.71937 -14.97752,7.48398 -2.58845,0.86578 -5.30625,1.4834 -8.24027,1.73253 -2.83981,0.24113 -5.94974,0.14342 -9.44209,-0.4516 -2.42488,-0.40531 -4.64857,-0.8034 -6.67159,-1.19175 -1.38538,-0.26594 -2.7107,-0.53588 -3.96212,-0.81193 -2.776934,-0.61258 -5.065814,-1.22815 -6.84454,-1.86635 -0.836463,-0.30012 -1.526837,-0.59343 -2.090335,-0.87914 -0.556688,-0.28226 -0.95857,-0.54147 -1.249564,-0.7714 -0.283064,-0.22367 -0.451275,-0.41215 -0.55028,-0.54943 -0.0511,-0.0709 -0.09228,-0.13984 -0.123009,-0.20935 -0.03143,-0.0711 -0.05566,-0.15089 -0.06745,-0.2461 -0.02446,-0.19756 0.0055,-0.46192 0.135332,-0.80366 0.134773,-0.3548 0.36251,-0.75402 0.682937,-1.1892 0.716835,-0.97356 1.805195,-2.00399 3.003421,-2.98675 0.999041,-0.81939 2.076219,-1.60672 3.030304,-2.26349 0.567613,-0.39073 1.145949,-0.7756 1.717798,-1.14804 2.099267,-1.36722 5.235897,-3.26667 5.992257,-3.7383 a 0.89714054,0.89714054 90 0 0 -0.94938,-1.52254 z"
       id="path10"
       sodipodi:nodetypes="cssc"
       inkscape:path-effect="#path-effect10"
       inkscape:original-d="m 103.66077,156.60507 c -17.074852,10.64714 -26.88974,16.20078 7.16844,21.40114 29.02838,4.43236 36.2057,-25.80779 72.58695,-15.74415 17.41364,4.81689 28.87047,6.0211 11.88063,24.63605" /><path
       style="fill:#ffffff;fill-opacity:1;fill-rule:nonzero;stroke:none;stroke-width:0.793999;stroke-linecap:round;stroke-miterlimit:10;stroke-dasharray:none;stroke-dashoffset:0;stroke-opacity:1"
       d="m 149.85022,142.10604 c -0.35333,0.20819 -0.65393,0.41803 -0.85473,0.60627 -0.0822,0.0771 -0.13679,0.1407 -0.16496,0.18443 -0.022,0.0342 -0.0271,0.0606 -0.002,0.0319 0.0193,-0.0223 0.0555,-0.0836 0.0789,-0.18419 0.023,-0.0992 0.028,-0.2135 0.009,-0.33108 -0.0181,-0.11047 -0.0523,-0.19355 -0.0778,-0.24758 -0.0237,-0.0501 -0.0356,-0.0678 -0.0181,-0.0619 0.0322,0.0107 0.16816,0.0988 0.415,0.20611 0.23944,0.10406 0.55852,0.22123 0.98267,0.3483 0.80435,0.24096 1.87718,0.48509 3.27328,0.73499 2.63434,0.47154 6.06457,0.90286 10.31687,1.38244 4.06755,0.45874 8.71507,0.94315 13.4607,1.50471 4.11227,0.48662 8.17789,1.01662 12.12614,1.63561 0.82375,0.12914 1.6496,0.26342 2.47508,0.40312 4.70483,0.79622 9.46516,1.77968 13.80401,3.01838 4.16252,1.18836 8.04177,2.64061 11.1441,4.44983 1.5222,0.88771 2.88735,1.87854 4.01306,2.99099 0.75484,0.74595 1.40891,1.55355 1.92818,2.42689 3.6453,-0.94791 7.37111,-1.93546 10.94122,-3.09933 4.22664,-1.37791 8.38579,-3.05021 12.61066,-4.72281 0.16054,-0.10702 0.29256,-0.2246 0.4033,-0.34968 0.11813,-0.13343 0.21967,-0.28405 0.30653,-0.45387 0.17317,-0.33853 0.30449,-0.7867 0.36069,-1.3724 0.0563,-0.58705 0.0348,-1.28964 -0.082,-2.11141 -0.11606,-0.81625 -0.32247,-1.72416 -0.61991,-2.71379 -0.59218,-1.97029 -1.52495,-4.19736 -2.73509,-6.55367 -0.59401,-1.15663 -1.25151,-2.33787 -1.96227,-3.52647 -0.71133,-1.18957 -1.4836,-2.39914 -2.3094,-3.60856 -1.58334,-2.31886 -3.35116,-4.61871 -5.22033,-6.72852 -1.81592,-2.04972 -3.70045,-3.88907 -5.55772,-5.36284 -1.84189,-1.46158 -3.59235,-2.51202 -5.17085,-3.07989 -0.78282,-0.28162 -1.50356,-0.43741 -2.16042,-0.47615 -0.65043,-0.0384 -1.2478,0.0372 -1.7986,0.22873 -3.70551,1.76001 -8.03551,3.57321 -12.71322,5.39818 -5.36101,2.09156 -10.96786,4.11741 -16.4117,6.04966 -0.007,0.002 -0.5757,0.20421 -0.58252,0.20663 -16.12804,5.71758 -30.80561,10.44626 -40.54486,13.31679 z m -1.18159,-2.85336 c 9.08981,-2.44747 25.29836,-6.76393 40.71903,-12.21567 0.19299,-0.0682 0.38632,-0.13683 0.57997,-0.20579 5.39591,-1.92157 10.96589,-4.09919 16.16897,-6.37283 4.60866,-2.0139 8.80143,-4.04707 12.31033,-6.00185 a 0.00245805,0.16179578 66.047168 0 1 0.12042,-0.0557 c 0.95722,-0.42816 1.97951,-0.63597 3.03583,-0.65439 1.04641,-0.0182 2.11439,0.1493 3.18109,0.45912 2.12449,0.61706 4.30194,1.81522 6.41683,3.35597 2.14976,1.56616 4.27459,3.51515 6.27117,5.65524 2.05923,2.20724 3.98681,4.62243 5.69173,7.06592 0.89038,1.27609 1.71994,2.55966 2.47945,3.82989 0.75881,1.26906 1.45791,2.54194 2.08604,3.80005 1.27304,2.54985 2.26517,5.06013 2.86912,7.37596 0.3043,1.16687 0.51397,2.29919 0.60795,3.37343 0.0942,1.0763 0.0743,2.11851 -0.0967,3.08981 -0.17197,0.977 -0.5014,1.90612 -1.04123,2.71703 -0.27082,0.40683 -0.59039,0.77728 -0.95989,1.10341 -0.37022,0.32677 -0.78178,0.60131 -1.23017,0.82275 a 0.04173763,0.49011842 61.95895 0 1 -0.27203,0.11644 c -4.4789,1.17932 -8.90396,2.31232 -13.2044,3.73295 -4.03053,1.33147 -8.08782,2.96234 -12.01401,4.53137 a 1.747241,1.5691741 66.057337 0 1 -2.06945,-0.92704 c -0.41063,-0.8538 -1.05677,-1.67718 -1.94649,-2.47273 -0.9026,-0.80708 -2.04115,-1.57206 -3.39741,-2.29475 -2.78137,-1.48204 -6.3599,-2.72407 -10.38808,-3.78382 -4.17358,-1.098 -8.79483,-1.99126 -13.42207,-2.75203 -0.81007,-0.13318 -1.62141,-0.26248 -2.43155,-0.3882 -3.90032,-0.60532 -7.88338,-1.14281 -11.98192,-1.66487 -4.71007,-0.59997 -9.34571,-1.15022 -13.43726,-1.69314 -4.24555,-0.56337 -7.79937,-1.10523 -10.55906,-1.70612 -1.46548,-0.3191 -2.6952,-0.65237 -3.68603,-1.01351 -0.52554,-0.19155 -0.99925,-0.39646 -1.41374,-0.61992 -0.43142,-0.23259 -0.83961,-0.50711 -1.17789,-0.84109 -0.18066,-0.17837 -0.35143,-0.38357 -0.49416,-0.61896 -0.15002,-0.24742 -0.2669,-0.52491 -0.33009,-0.82898 -0.0666,-0.32046 -0.0666,-0.63735 -0.0122,-0.93836 0.0566,-0.31297 0.1678,-0.58709 0.29702,-0.81887 0.13666,-0.24513 0.3001,-0.45506 0.46253,-0.63175 0.17604,-0.19149 0.36671,-0.36103 0.55407,-0.50968 0.43427,-0.34453 0.93322,-0.64107 1.37665,-0.87949 z"
       id="path11"
       sodipodi:nodetypes="ccccc"
       inkscape:path-effect="#path-effect11"
       inkscape:original-d="m 149.09063,140.74926 c -14.80278,8.2873 64.99672,4.60309 72.77222,22.42583 l 25.21494,-8.2749 c 9.99519,-5.35457 -15.78087,-44.0579 -27.91789,-39.0603 -13.9889,7.20978 -39.60422,16.31891 -70.06927,24.90937 z" /><path
       style="fill:#ffffff;fill-opacity:1;fill-rule:nonzero;stroke:none;stroke-width:0.793999;stroke-linecap:round;stroke-miterlimit:10;stroke-dasharray:none;stroke-dashoffset:0;stroke-opacity:1"
       d="m 251.49295,83.514809 c -0.019,0.534232 -0.0713,1.446378 -0.25696,2.6028 -0.18112,1.12809 -0.41925,2.049981 -0.5483,2.525133 -0.054,0.198805 0.0741,-0.242632 0,0 -0.071,0.232523 -0.1504,0.479681 -0.23927,0.741198 -0.52053,1.531598 -1.26052,3.259532 -2.41744,5.480058 -0.93429,1.793237 -1.78813,3.260592 -2.95622,5.351342 -0.94177,1.68566 -1.96235,3.56287 -2.82159,5.4913 -0.82296,1.847 -1.53731,3.82325 -1.96056,5.92741 -0.42084,2.09218 -0.54811,4.28121 -0.24073,6.58501 0.31652,2.37232 1.08019,4.76072 2.32786,7.18329 0.90824,1.76351 2.05314,3.50656 3.41462,5.23302 0.61971,0.78585 1.30959,1.60004 2.07869,2.44326 3.61133,3.95676 7.31584,7.32785 11.26904,9.72485 1.85412,1.12424 3.72474,2.01299 5.65278,2.68213 1.94945,0.67657 3.90916,1.1118 5.90887,1.35537 4.42739,0.53929 9.00511,0.11783 13.34734,-0.56039 4.18962,-0.65439 8.91737,-1.70031 11.32695,-2.21574 2.97218,-0.63577 4.97779,-1.05564 6.03439,-1.28655 a 1.0587431,1.0587431 90 0 0 -0.4521,-2.06866 c -0.81994,0.17919 -3.2631,0.7382 -6.00919,1.2812 -2.52993,0.50026 -7.00309,1.31014 -11.23065,1.74638 -4.30499,0.44423 -8.55445,0.5427 -12.51217,-0.20003 -1.7663,-0.33148 -3.4539,-0.82413 -5.10678,-1.50888 -1.63385,-0.67687 -3.22197,-1.53646 -4.81428,-2.60154 -3.41604,-2.28496 -6.73141,-5.44118 -10.20176,-9.27012 -0.70296,-0.77516 -1.32872,-1.51377 -1.88771,-2.2164 -1.22969,-1.54568 -2.24249,-3.0521 -3.04537,-4.52965 -1.09756,-2.01987 -1.7784,-3.94026 -2.1189,-5.80874 -0.33085,-1.81546 -0.34014,-3.58419 -0.10382,-5.34834 0.23996,-1.79128 0.72976,-3.55629 1.36412,-5.31888 0.66403,-1.84505 1.48893,-3.69023 2.29492,-5.43956 0.98329,-2.134174 1.74945,-3.733762 2.55618,-5.635689 1.0173,-2.398356 1.64801,-4.259512 2.09496,-5.93477 0.0758,-0.284189 0.14345,-0.552471 0.20416,-0.804851 0.0636,-0.264378 -0.0579,0.213317 0,0 0.13714,-0.504918 0.3934,-1.495883 0.58891,-2.713655 0.20104,-1.252162 0.25807,-2.243087 0.27883,-2.826602 a 0.90998567,0.90998567 90 0 0 -1.81882,-0.0647 z"
       id="path12"
       sodipodi:nodetypes="csc"
       inkscape:path-effect="#path-effect12"
       inkscape:original-d="m 252.40236,83.547161 c -0.6042,16.983759 -21.43176,27.722019 -2.92309,48.070479 15.27987,16.79873 24.75578,16.01635 51.7071,10.12633" /><path
       style="fill:#ffffff;fill-opacity:1;fill-rule:nonzero;stroke:none;stroke-width:0.793999;stroke-linecap:round;stroke-miterlimit:10;stroke-dasharray:none;stroke-dashoffset:0;stroke-opacity:1"
       d="m 258.76357,71.935226 c 1.34776,1.492647 4.98225,5.312112 8.08655,8.955882 4.56638,5.359948 10.34255,13.641501 16.35274,20.354302 6.46888,7.22511 16.37728,16.18282 21.35034,21.42521 2.77864,2.92912 5.27349,5.84041 6.32819,7.0085 a 1.3488248,1.3488248 90 0 0 2.00222,-1.80788 c -1.05469,-1.16808 -3.69701,-3.94622 -6.32818,-7.00849 -4.70914,-5.4807 -12.61212,-16.24916 -19.14148,-23.419663 -6.06638,-6.662062 -13.71719,-13.250944 -18.58466,-18.339035 -3.30898,-3.458959 -6.73879,-7.463235 -8.08654,-8.955882 a 1.3332945,1.3332945 90 0 0 -1.97918,1.787056 z"
       id="path13"
       inkscape:path-effect="#path-effect13"
       inkscape:original-d="M 259.75316,71.041698 311.8825,128.77518" /><path
       style="fill:#ffffff;fill-opacity:1;fill-rule:nonzero;stroke:none;stroke-width:0.793999;stroke-linecap:round;stroke-miterlimit:10;stroke-dasharray:none;stroke-dashoffset:0;stroke-opacity:1"
       d="m 322.22377,103.28127 c -0.22898,-0.099 -0.52363,-0.22501 -0.96364,-0.40311 -0.33108,-0.134 -0.71965,-0.28753 -1.21224,-0.47796 -0.89204,-0.34487 -1.74826,-0.66652 -3.15206,-1.19843 -2.10112,-0.79614 -5.05198,-1.921115 -8.32251,-3.280584 0.003,0.0014 -0.32874,-0.13692 -0.32542,-0.135539 -5.01832,-2.09436 -13.60328,-5.842056 -21.34968,-11.309054 -3.37749,-2.383654 -6.67122,-5.141828 -9.51315,-8.305963 -2.7592,-3.072027 -5.07035,-6.501956 -6.63512,-10.319044 -1.57692,-3.846736 -2.3711,-8.027069 -2.15863,-12.55427 0.2228,-4.747291 1.54649,-9.737877 4.0397,-14.946386 1.08643,-2.274808 2.30539,-4.196146 3.67907,-5.737283 1.32456,-1.486038 2.75996,-2.582225 4.32013,-3.333506 1.55514,-0.748854 3.22062,-1.148885 5.01526,-1.271765 1.85875,-0.127268 3.85336,0.04333 5.97998,0.428107 2.29918,0.415998 4.74305,1.081479 7.23975,1.864982 2.52941,0.793767 5.18267,1.732149 7.6557,2.620642 0.35848,0.128791 0.72033,0.259387 1.08584,0.391844 8.0604,2.921024 18.27891,6.788534 22.74369,8.442008 a 1.7548696,1.7548696 90 0 0 1.21888,-3.291288 c -4.44798,-1.647254 -14.56297,-5.676407 -22.78994,-8.484442 -0.373,-0.127311 -0.74306,-0.252251 -1.1101,-0.374674 -2.54176,-0.847786 -5.27942,-1.676609 -7.95803,-2.33585 -2.63067,-0.647442 -5.2547,-1.144907 -7.75027,-1.364543 -2.31163,-0.203447 -4.50662,-0.168763 -6.55421,0.192075 -1.98346,0.349537 -3.7846,0.996918 -5.42698,1.985703 -1.64068,0.987764 -3.08437,2.292618 -4.39396,3.917464 -1.35647,1.682998 -2.55827,3.696289 -3.67075,6.007205 -2.53431,5.276074 -3.96696,10.346347 -4.32076,15.230005 -0.33785,4.663398 0.31719,9.036204 1.79323,13.137324 1.46447,4.068955 3.70339,7.775963 6.42379,11.136336 2.79935,3.457877 6.07567,6.507911 9.44748,9.161779 7.73519,6.088166 16.36629,10.379968 21.4555,12.657857 0.11096,0.0497 0.22099,0.0987 0.33005,0.14711 3.33072,1.47835 6.31299,2.63259 8.45595,3.4331 1.25787,0.46988 2.45111,0.90045 3.17043,1.16172 0.49121,0.1784 0.86024,0.31331 1.17509,0.43119 0.41037,0.15363 0.66925,0.25635 0.84097,0.33062 a 1.9357658,1.9357658 90 0 0 1.53696,-3.55338 z"
       id="path14"
       sodipodi:nodetypes="csc"
       inkscape:path-effect="#path-effect14"
       inkscape:original-d="m 321.45529,105.05796 c -7.98164,-3.45232 -69.96234,-21.543151 -49.18224,-64.878693 9.05193,-18.87721 23.43959,-11.122324 58.68683,1.931048" /><path
       style="fill:#ffffff;fill-opacity:1;fill-rule:nonzero;stroke:none;stroke-width:0.793999;stroke-linecap:round;stroke-miterlimit:10;stroke-dasharray:none;stroke-dashoffset:0;stroke-opacity:1"
       d="m 308.16108,33.554079 c -0.004,2.869367 -0.14486,7.062228 -0.84102,12.216303 -0.79309,5.871659 -2.11699,11.831996 -4.05987,17.988507 0,0 -0.003,0.01079 -0.003,0.01079 -1.90293,6.027758 -4.26157,11.728927 -6.50969,16.940813 -1.92526,4.46337 -3.84087,8.678616 -4.87287,10.917657 a 1.1237967,1.1237967 90 0 0 2.0412,0.94082 c 0.98061,-2.127518 3.04773,-6.577518 4.89941,-10.977495 2.22124,-5.278153 4.39789,-11.122765 6.2778,-17.250466 10e-6,-2e-6 0.003,-0.01097 0.003,-0.01097 1.92512,-6.276561 3.34138,-12.284844 4.15826,-18.297629 0.71404,-5.255745 0.85506,-9.547398 0.85869,-12.475907 a 0.97594111,0.97594111 90 0 0 -1.95188,-0.0024 z"
       id="path15"
       sodipodi:nodetypes="cc"
       inkscape:path-effect="#path-effect15"
       inkscape:original-d="m 309.13702,33.555289 c -0.0268,21.60947 -7.79195,40.209582 -16.24219,58.543268" /><path
       style="fill:#ffffff;fill-opacity:1;fill-rule:nonzero;stroke:none;stroke-width:0.793999;stroke-linecap:round;stroke-miterlimit:10;stroke-dasharray:none;stroke-dashoffset:0;stroke-opacity:1"
       d="m 278.92098,19.973314 c 2.68079,0.658965 7.28074,1.783396 12.14926,2.808833 4.99059,1.051151 9.26433,1.789149 12.87969,2.222703 0.75146,0.09011 1.48608,0.169136 2.20394,0.23691 3.45384,0.326083 6.53529,0.393396 9.25386,0.177584 2.2634,-0.17968 4.29241,-0.556813 6.09051,-1.154625 0.28725,-0.0955 0.57034,-0.197914 0.84895,-0.307443 1.92642,-0.757324 3.54048,-1.815407 4.86122,-3.172803 1.3244,-1.361164 2.25622,-2.920919 2.97724,-4.5611 0.19508,-0.443774 0.37391,-0.891588 0.53988,-1.339581 0.48156,-1.299842 0.89804,-2.713992 1.27191,-4.331711 0.60824,-2.6317827 1.02,-5.5066793 1.19512,-6.8901253 a 1.0202356,1.0202356 90 0 0 -2.02432,-0.256243 c -0.17165,1.3560321 -0.50578,4.1804701 -1.08157,6.7078393 -0.34911,1.532407 -0.76158,2.868969 -1.25604,4.013367 -0.1718,0.397613 -0.3594,0.78603 -0.5636,1.162358 -0.75887,1.398487 -1.70911,2.56293 -2.89046,3.481725 -1.16485,0.905951 -2.52597,1.552922 -4.12423,2.012585 -0.23379,0.06724 -0.472,0.13028 -0.71464,0.189401 -1.52036,0.370454 -3.28364,0.576872 -5.33056,0.623241 -2.46149,0.05576 -5.31545,-0.120367 -8.61152,-0.511633 -0.68348,-0.08113 -1.38551,-0.171464 -2.10642,-0.2708 -3.52399,-0.485584 -7.57671,-1.181312 -12.54522,-2.211766 -4.79027,-0.993486 -9.35847,-2.079334 -12.01432,-2.73217 a 2.1128028,2.1128028 90 0 0 -1.00868,4.103454 z"
       id="path16"
       sodipodi:nodetypes="cc"
       inkscape:path-effect="#path-effect16"
       inkscape:original-d="m 279.42532,17.921587 c 45.18259,11.106336 50.23091,5.553168 52.75508,-14.3877528" /></g></svg>
